<svg width="1200" height="760" viewBox="0 0 1200 760" fill="none" xmlns="http://www.w3.org/2000/svg">
  <rect width="1200" height="760" rx="36" fill="#120F0D"/>
  <rect x="24" y="24" width="1152" height="712" rx="28" stroke="#6C5326" stroke-opacity="0.55"/>
  <rect x="70" y="132" width="900" height="360" rx="28" fill="url(#paint0_linear)"/>
  <path d="M165 514H1018C1047.82 514 1072 538.177 1072 568V570C1072 599.823 1047.82 624 1018 624H165V514Z" fill="#241A15"/>
  <path d="M166 516H983L1066 623H166V516Z" fill="url(#paint1_linear)"/>
  <rect x="136" y="540" width="814" height="40" rx="8" fill="#EFE4CF"/>
  <rect x="160" y="540" width="44" height="98" rx="6" fill="#F7F0E3"/>
  <rect x="223" y="540" width="44" height="98" rx="6" fill="#F7F0E3"/>
  <rect x="286" y="540" width="44" height="98" rx="6" fill="#F7F0E3"/>
  <rect x="349" y="540" width="44" height="98" rx="6" fill="#F7F0E3"/>
  <rect x="412" y="540" width="44" height="98" rx="6" fill="#F7F0E3"/>
  <rect x="475" y="540" width="44" height="98" rx="6" fill="#F7F0E3"/>
  <rect x="538" y="540" width="44" height="98" rx="6" fill="#F7F0E3"/>
  <rect x="601" y="540" width="44" height="98" rx="6" fill="#F7F0E3"/>
  <rect x="664" y="540" width="44" height="98" rx="6" fill="#F7F0E3"/>
  <rect x="727" y="540" width="44" height="98" rx="6" fill="#F7F0E3"/>
  <rect x="790" y="540" width="44" height="98" rx="6" fill="#F7F0E3"/>
  <rect x="853" y="540" width="44" height="98" rx="6" fill="#F7F0E3"/>
  <rect x="190" y="540" width="31" height="64" rx="4" fill="#11100F"/>
  <rect x="316" y="540" width="31" height="64" rx="4" fill="#11100F"/>
  <rect x="379" y="540" width="31" height="64" rx="4" fill="#11100F"/>
  <rect x="505" y="540" width="31" height="64" rx="4" fill="#11100F"/>
  <rect x="631" y="540" width="31" height="64" rx="4" fill="#11100F"/>
  <rect x="694" y="540" width="31" height="64" rx="4" fill="#11100F"/>
  <rect x="820" y="540" width="31" height="64" rx="4" fill="#11100F"/>
  <text x="92" y="92" fill="#C7A86A" font-family="Georgia, serif" font-size="28" letter-spacing="4">HARPSICHORD</text>
  <defs>
    <linearGradient id="paint0_linear" x1="70" y1="132" x2="970" y2="492" gradientUnits="userSpaceOnUse">
      <stop stop-color="#52331C"/>
      <stop offset="1" stop-color="#8B6335"/>
    </linearGradient>
    <linearGradient id="paint1_linear" x1="166" y1="516" x2="1066" y2="623" gradientUnits="userSpaceOnUse">
      <stop stop-color="#2A1D16"/>
      <stop offset="1" stop-color="#4B3525"/>
    </linearGradient>
  </defs>
</svg>
